<svg xmlns="http://www.w3.org/2000/svg" xmlns:xlink="http://www.w3.org/1999/xlink" width="219.41" height="211.953" viewBox="0 0 219.41 211.953"><defs><clipPath id="a"><path d="M0,27.235H219.41V-184.718H0Z" transform="translate(0 184.718)"/></clipPath></defs><g clip-path="url(#a)"><path d="M84.323-65.609q-3.476,1.924-6.867,3.769-3.381,1.829-6.661,3.959c-2.2,1.415-4.318,2.871-6.376,4.349s-4.191,2.993-6.376,4.539q-3.294,2.13-6.287,4.349t-6.081,4.735q-8.891,7.34-17.012,15.27A79.519,79.519,0,0,0,14.748-6.285,39.358,39.358,0,0,0,11.18,1.353a35.331,35.331,0,0,0-1.842,8.794,23.113,23.113,0,0,0,.2,2.993,2.553,2.553,0,0,0,.776,1.837,1.934,1.934,0,0,0,1.547.966,12.586,12.586,0,0,0,2.122.19,25.088,25.088,0,0,0,5.41-.19,34.1,34.1,0,0,0,5.22-1.161A52.546,52.546,0,0,0,32.916,11.4q3.476-1.845,7.337-4.349a12.079,12.079,0,0,1,2.323-1.547A12.5,12.5,0,0,0,44.9,3.96L49.153.677q1.156-.966,2.117-1.837c.649-.575,1.293-1.2,1.932-1.837Q54.555-4.351,55.819-5.6a13.87,13.87,0,0,0,2.222-3,72.386,72.386,0,0,0,6.376-6.857q2.9-3.579,5.986-7.253,2.13-2.89,3.964-5.891t3.383-6.091c.517-.644.992-1.288,1.446-1.927a9.768,9.768,0,0,0,1.061-1.932q2.51-4.252,5.125-8.218a71.963,71.963,0,0,0,4.735-8.4q2.122-4.64,4.249-9.179t4.064-8.984c.121-.127.121-.2,0-.2Q94.948-71.8,91.47-69.763t-7.147,4.154M177.661-108.9c0,.264-.259.454-.776.575a4.631,4.631,0,0,0-1.351.586,2.568,2.568,0,0,0,1.737-.2,2.279,2.279,0,0,1,1.547-.19c0,.264-.164.359-.48.29a.558.558,0,0,0-.676.29c0,.132.127.2.385.2a42.843,42.843,0,0,1-6.086,1.636,21.485,21.485,0,0,0-5.9,2.032c.127,0,.19-.032.19-.09s.127-.1.391-.1c.259.127.164.227-.29.29a3.024,3.024,0,0,0-1.256.48c-1.035.259-2,.517-2.9.776s-1.874.517-2.9.771a.875.875,0,0,0-.48.486.884.884,0,0,1-.48.48q-6.382,1.742-9.67,2.8t-5.79,2.127a61.316,61.316,0,0,0-5.511,2.7q-2.993,1.639-8.984,4.545c-1.937,1.029-3.869,2-5.8,2.9s-3.806,1.869-5.606,2.893a15.379,15.379,0,0,1-2.127,1.066,2.857,2.857,0,0,0-1.547,1.262,7.425,7.425,0,0,0-1.452,2.8,13.68,13.68,0,0,1-1.446,3.193q-6.96,15.257-14.3,29.754A189.016,189.016,0,0,1,62.671.867c-.765.644-1.541,1.357-2.312,2.127s-1.547,1.478-2.317,2.122L53.787,7.824q-2.9,2.32-6.181,4.444a49.593,49.593,0,0,1-6.767,3.674q-2.51,1.164-4.83,2.323a47.149,47.149,0,0,1-5.025,2.122l-5.606,1.357q-2.32.768-4.64,1.351a30.3,30.3,0,0,1-5.41.765,21.592,21.592,0,0,1-6.566-.866,28.8,28.8,0,0,1-5.416-2.412A5.962,5.962,0,0,1,.934,17.294a20.288,20.288,0,0,1-.871-4.539,21.271,21.271,0,0,1,.2-4.93q.388-2.51.966-4.83a62.525,62.525,0,0,1,5.6-13.724,92.133,92.133,0,0,1,7.538-11.4,157.661,157.661,0,0,1,25.991-25.12A306.187,306.187,0,0,1,70.794-67.736Q78.91-72.756,87.12-77.2t16.907-8.509q2.32-5.218,4.835-12.362t5.025-14.785q2.51-7.64,4.835-15.175t3.864-13.529a54.509,54.509,0,0,0,1.541-6.181c.385-2.059.771-4.191,1.161-6.382a7.754,7.754,0,0,0,.486-2.317,7.669,7.669,0,0,1,.48-2.312,5.606,5.606,0,0,1,2.8-2.222,9.9,9.9,0,0,1,3.964-.871,8.184,8.184,0,0,1,4.244,1.832,6.188,6.188,0,0,1,2.518,3.573,3.689,3.689,0,0,1-.19,2.708,15.417,15.417,0,0,0-1.166,2.512,18.526,18.526,0,0,0-1.737,4.545,31.146,31.146,0,0,1-1.547,4.729q-1.544,4.83-3.573,11.306t-4.154,13.233q-2.122,6.77-4.255,13.149T119.3-93.437a27.589,27.589,0,0,0,4.73-1.937,47.065,47.065,0,0,1,4.74-2.122q7.142-3.1,11.4-4.83c2.829-1.161,5.474-2.154,7.923-3s5.157-1.673,8.118-2.513,7.084-1.9,12.367-3.188a10.675,10.675,0,0,1,2.513-.581,25.37,25.37,0,0,0,3.088-.575c.9-.132,1.937-.29,3.093-.486a9.241,9.241,0,0,1,2.9-.1,4.271,4.271,0,0,1,1.351.776,3.984,3.984,0,0,0,1.357.771c-1.161.391-2.3.781-3.389,1.166a12.155,12.155,0,0,0-2.993,1.541.791.791,0,0,0,.486-.1,2.353,2.353,0,0,1,.676-.29" transform="translate(0 188.09)"/><path d="M96.431-77.99c-.385-.127-.581-.259-.581-.385s-.132-.063-.391.2c-.385.127-.48-.037-.285-.486s.1-.607-.29-.486a1.568,1.568,0,0,0,.385-1.156,3.426,3.426,0,0,1,.391-1.547.467.467,0,0,0-.391-.486.45.45,0,0,1-.385-.486c.127-.639.348-1.668.676-3.088s.644-2.866.966-4.349.644-2.829.966-4.059a6.036,6.036,0,0,1,.871-2.222q4.45-11.4,8.694-22.7t8.894-22.708l4.824-10.826c.132-.771.259-1.515.391-2.222a4.322,4.322,0,0,1,.771-1.837A3.147,3.147,0,0,1,123-157.8a2.571,2.571,0,0,0,1.061-1.351q-6.762,2.32-14.589,5.891t-14.2,7.247c-1.415.776-2.676,1.42-3.769,1.932a7.626,7.626,0,0,1-4.349.385,9.487,9.487,0,0,1-4.824-2.412A5.649,5.649,0,0,1,80-150.262a3.471,3.471,0,0,1,.966-2.417,13.177,13.177,0,0,1,2.412-2.032c.966-.639,2-1.256,3.093-1.837s2.1-1.056,3-1.441q14.3-6.777,29.084-12.563a221.423,221.423,0,0,1,31.792-9.67q6.96-1.734,14.109-2.993a97.934,97.934,0,0,1,14.494-1.446,55.114,55.114,0,0,1,8.688.29,32.155,32.155,0,0,1,7.638,1.742,16.389,16.389,0,0,1,5.7,3.473,12.239,12.239,0,0,1,3.283,5.511,7.385,7.385,0,0,1-.1,2.608c-.19,1.093-.417,2.159-.676,3.188a14.854,14.854,0,0,1-3.283,5.41,59.941,59.941,0,0,1-5.025,4.835,101.159,101.159,0,0,1-15.656,11.692q-8.685,5.313-16.806,9.95c2.956.127,5.959.253,8.984.385a69.979,69.979,0,0,1,8.984.966,47.787,47.787,0,0,1,14.88,3.764,45.687,45.687,0,0,1,7.923,4.355,18.077,18.077,0,0,1,3.869,4.539,29.245,29.245,0,0,1,2.7,5.505,15.81,15.81,0,0,1,.586,5.416,19.118,19.118,0,0,1-1.066,5.12,32.313,32.313,0,0,1-2.027,4.539c-.776,1.42-1.483,2.708-2.133,3.869-3.917,4.407-14.3,15.846-15.455,16.616a16.652,16.652,0,0,0-3.283,2.412q-1.552,1.457-3.093,2.8-5.028,3.484-10.145,7.247a88.431,88.431,0,0,1-10.531,6.672,169.915,169.915,0,0,1-18.363,12.172q-10.048,5.8-20.871,10.921T102.036-29q-10.831,4.537-20.676,8.6-3.484,1.544-7.057,2.8t-7.242,2.418a65.526,65.526,0,0,1-7.833,2.708,51.534,51.534,0,0,0,4.555-9.559C94.4-30.1,142.02-54.607,183.588-90.743a28.333,28.333,0,0,0,2.222-2.032L188.032-95a31.153,31.153,0,0,0,2.9-2.9,45.93,45.93,0,0,0,2.993-3.764q1.449-2.035,2.613-4.064a21.509,21.509,0,0,0,1.737-3.763,21.325,21.325,0,0,0,.871-5.511,11.416,11.416,0,0,0-.871-5.12,9.92,9.92,0,0,0-2.608-2.127,16.252,16.252,0,0,0-3.579-1.547,66.8,66.8,0,0,0-13.814-2.8,102.163,102.163,0,0,0-15.946-.48q-3.864.2-7.247.676t-6.661,1.061a32.431,32.431,0,0,0-6.862,1.452,32.6,32.6,0,0,1-6.477,1.452,11.783,11.783,0,0,1-6.566-1.357,13.32,13.32,0,0,1-4.26-3.669,4.42,4.42,0,0,1,2.618-2.227,16.291,16.291,0,0,0,3.378-1.446,17.5,17.5,0,0,0,2.7-1.262,23.792,23.792,0,0,1,2.518-1.251,30.744,30.744,0,0,0,4.054-2.222c1.283-.839,2.518-1.578,3.668-2.222,2.581-1.415,5.057-2.829,7.448-4.249s4.793-2.84,7.242-4.254a24.2,24.2,0,0,1,3.769-2.512c1.225-.644,2.349-1.288,3.383-1.932a65.418,65.418,0,0,0,6.952-4.93q3.484-2.795,6.772-5.12,3.278-2.708,6.471-5.505a16.79,16.79,0,0,0,4.735-7.247,12.7,12.7,0,0,0-3.674-.29c-1.415.063-2.835.158-4.249.29a137.428,137.428,0,0,0-28.213,4.249,242.24,242.24,0,0,0-24.74,7.923,2.041,2.041,0,0,0,.1,1.452c.19.322.607.29,1.256-.1-.259.517-.1.871.475,1.066a1.081,1.081,0,0,1,.871,1.066,19.072,19.072,0,0,1-1.251,5.215q-1.259,3.674-2.8,7.923t-3.283,8.409c-1.161,2.771-2,4.919-2.518,6.466q-3.674,7.743-7.532,14.494a110.036,110.036,0,0,0-6.767,14.109c-.644,1.42-1.32,2.8-2.027,4.159a36.483,36.483,0,0,0-2.032,4.735c-.259.512-.48.992-.67,1.446a11.83,11.83,0,0,0-.486,1.256,7.836,7.836,0,0,0-.581,1.452c-.127.454-.259.934-.385,1.446a6.96,6.96,0,0,1-1.932,1.937,1.089,1.089,0,0,0-.1.765.8.8,0,0,1-.285.776Z" transform="translate(8.733 184.718)"/></g></svg>