<?xml version="1.0" encoding="utf-8"?>
<!-- Generator: Adobe Illustrator 24.3.0, SVG Export Plug-In . SVG Version: 6.00 Build 0)  -->
<svg version="1.1" id="Capa_1" xmlns="http://www.w3.org/2000/svg" xmlns:xlink="http://www.w3.org/1999/xlink" x="0px" y="0px"
	 viewBox="0 0 512 512" style="enable-background:new 0 0 512 512;" xml:space="preserve">
<style type="text/css">
	.st0{fill:#FFFFFF;}
</style>
<rect width="512" height="512"/>
<g>
	<path class="st0" d="M88.5,357.3l70.4-107.5l-63.8-98.5h48.6l41.3,66.2l40.5-66.2h48.2l-64.1,100L280,357.3h-50.1l-45.7-71.2
		l-45.8,71.2L88.5,357.3L88.5,357.3z"/>
	<path class="st0" d="M423.5,357.3h-36.7v-21.9c-6.1,8.5-13.3,14.9-21.6,19c-8.3,4.2-16.6,6.3-25.1,6.3c-17.1,0-31.8-6.9-44-20.7
		c-12.2-13.8-18.3-33.1-18.3-57.8c0-25.3,5.9-44.5,17.8-57.7c11.9-13.2,26.9-19.7,45.1-19.7c16.7,0,31.1,6.9,43.3,20.8v-74.2h39.5
		L423.5,357.3L423.5,357.3z M318.1,279.5c0,15.9,2.2,27.4,6.6,34.6c6.4,10.3,15.3,15.5,26.7,15.5c9.1,0,16.8-3.9,23.2-11.6
		c6.4-7.7,9.6-19.3,9.6-34.6c0-17.1-3.1-29.5-9.3-37c-6.2-7.5-14.1-11.3-23.7-11.3c-9.4,0-17.2,3.7-23.5,11.2
		C321.3,253.5,318.1,264.7,318.1,279.5z"/>
</g>
</svg>
